<svg width="148" height="120" viewBox="0 0 148 120" fill="none" xmlns="http://www.w3.org/2000/svg">
<g filter="url(#filter0_d)">
<path d="M117.135 23.9879V37.7295C117.135 38.8673 116.216 39.7907 115.084 39.7907H99.0225C97.8904 39.7907 96.9717 38.8673 96.9717 37.7295V23.9879C96.9717 22.8473 97.8904 21.9266 99.0225 21.9266H115.084C116.216 21.9266 117.135 22.8473 117.135 23.9879Z" fill="#555760"/>
<path d="M13.7896 21.9252H6.05078C4.9182 21.9252 4 22.8478 4 23.9864V37.728C4 38.8666 4.9182 39.7892 6.05078 39.7892H13.7896C14.9222 39.7892 15.8404 38.8666 15.8404 37.728V23.9864C15.8404 22.8481 14.9222 21.9252 13.7896 21.9252Z" fill="#555760"/>
<path d="M144 23.9878V37.7293C144 38.8671 143.081 39.7906 141.949 39.7906H134.211C133.079 39.7906 132.16 38.8671 132.16 37.7293V23.9878C132.16 22.8472 133.079 21.9265 134.211 21.9265H141.949C143.081 21.9265 144 22.8472 144 23.9878Z" fill="#555760"/>
<path d="M144 31.0591V37.7292C144 38.867 143.081 39.7905 141.949 39.7905H134.211C133.079 39.7905 132.16 38.867 132.16 37.7292V31.0591C132.16 32.1969 133.079 33.1203 134.211 33.1203H141.949C143.081 33.1203 144 32.1969 144 31.0591Z" fill="#2E384D"/>
<path d="M15.8399 31.0577V37.7279C15.8399 38.8657 14.9211 39.7891 13.7891 39.7891H6.05078C4.91875 39.7891 4 38.8657 4 37.7279V31.0577C4 32.1955 4.91875 33.119 6.05078 33.119H13.7891C14.9211 33.119 15.8399 32.1955 15.8399 31.0577Z" fill="#2E384D"/>
<path d="M117.135 33.121V37.7299C117.135 38.8677 116.216 39.7911 115.084 39.7911H99.0227C97.8907 39.7911 96.9719 38.8677 96.9719 37.7299V33.121H117.135Z" fill="#2E384D"/>
<path d="M22.6708 13.0499V48.6653C22.6708 50.1824 22.0583 51.5538 21.0685 52.5487C20.0814 53.5436 18.7142 54.1564 17.2048 54.1564C16.2095 54.1564 15.2771 53.8899 14.4731 53.4199C12.838 52.4745 11.7388 50.6991 11.7388 48.6653V13.0499C11.7388 11.0161 12.838 9.24069 14.4731 8.29527C15.2771 7.8253 16.2095 7.55872 17.2048 7.55872C20.2235 7.55872 22.6708 10.0157 22.6708 13.0499Z" fill="#3FB023"/>
<path d="M22.6708 13.0496V48.6651C22.6708 50.1821 22.0583 51.5536 21.0685 52.5484C20.0814 53.5433 18.7142 54.1562 17.2048 54.1562C16.2095 54.1562 15.2771 53.8896 14.4731 53.4197C14.8888 53.1806 15.2688 52.8865 15.6052 52.5484C16.5923 51.5536 17.2048 50.1821 17.2048 48.6651V13.0496C17.2048 11.0159 16.1056 9.24319 14.4731 8.29502C15.2771 7.82506 16.2095 7.55847 17.2048 7.55847C20.2235 7.55847 22.6708 10.0155 22.6708 13.0496Z" fill="#4CD62B"/>
<path d="M136.276 13.0489V48.6643C136.276 50.1814 135.663 51.5528 134.673 52.5477C133.686 53.5426 132.319 54.1555 130.81 54.1555C129.814 54.1555 128.882 53.8889 128.078 53.4189C126.443 52.4735 125.344 50.6981 125.344 48.6643V13.0489C125.344 11.0151 126.443 9.23971 128.078 8.29429C128.882 7.82433 129.814 7.55774 130.81 7.55774C133.829 7.55774 136.276 10.0147 136.276 13.0489Z" fill="#3FB023"/>
<path d="M136.276 13.0489V48.6643C136.276 50.1814 135.663 51.5528 134.673 52.5477C133.686 53.5426 132.319 54.1555 130.81 54.1555C129.814 54.1555 128.882 53.8889 128.078 53.4189C128.494 53.1798 128.874 52.8858 129.21 52.5477C130.197 51.5528 130.81 50.1814 130.81 48.6643V13.0489C130.81 11.0151 129.711 9.24246 128.078 8.29429C128.882 7.82433 129.814 7.55774 130.81 7.55774C133.829 7.55774 136.276 10.0147 136.276 13.0489Z" fill="#4DD82B"/>
<path d="M101.073 23.8065V37.7295C101.073 38.183 100.923 38.6255 100.646 38.9855L89.9221 52.9744L93.1104 86.5122C93.1651 87.0893 92.9737 87.6637 92.5854 88.0952C92.1971 88.5239 91.6475 88.7685 91.0678 88.7685H56.9318C56.3522 88.7685 55.8025 88.5239 55.4143 88.0952C55.026 87.6637 54.8346 87.0893 54.8893 86.5122L55.4717 80.3944L55.5756 79.2951L58.0447 53.2988L47.7389 45.3011C47.2357 44.9109 46.9404 44.309 46.9404 43.6714V15.8667C46.9404 14.7289 47.8592 13.8054 48.9912 13.8054H91.117C96.6049 13.8054 101.073 18.2907 101.073 23.8065Z" fill="#FFD3C0"/>
<path d="M101.073 23.8065V37.7295C101.073 38.183 100.922 38.6255 100.646 38.9855L89.9219 52.9744L93.1102 86.5122C93.1649 87.0893 92.9735 87.6637 92.5852 88.0952C92.1969 88.5239 91.6473 88.7685 91.0676 88.7685H56.9316C56.352 88.7685 55.8023 88.5239 55.4141 88.0952C55.0258 87.6637 54.8344 87.0893 54.8891 86.5122L55.4715 80.3944L55.5754 79.2951H83.6848C84.2645 79.2951 84.8141 79.0505 85.2024 78.6218C85.5907 78.1903 85.7821 77.6159 85.7274 77.0387L83.6328 52.8453L95.4508 37.2074C95.727 36.8473 95.8774 36.4048 95.8774 35.9486V22.0284C95.8774 18.6232 92.536 15.6111 89.941 13.8054H91.1168C96.6047 13.8054 101.073 18.2907 101.073 23.8065Z" fill="#FFB9A1"/>
<path d="M89.8316 23.9879V31.4083C89.8316 31.8068 89.7167 32.1998 89.498 32.5324L89.1152 33.1205L85.3937 38.8535C85.0164 39.4389 84.3683 39.7907 83.6765 39.7907H32.9155C31.7835 39.7907 30.8647 38.8673 30.8647 37.7295V23.9879C30.8647 23.4354 31.0835 22.9078 31.4745 22.5203C31.8628 22.1327 32.396 21.9184 32.9401 21.9266H87.8027C88.9265 21.9376 89.8316 22.8583 89.8316 23.9879Z" fill="#555760"/>
<path d="M30.8647 33.1205H89.1152L85.3937 38.8535C85.0164 39.4389 84.3683 39.7906 83.6765 39.7906H32.9155C31.7835 39.7906 30.8647 38.8672 30.8647 37.7294V33.1205Z" fill="#2E384D"/>
<path d="M34.9669 6.17871V55.5357C34.9669 58.9437 32.2107 61.714 28.82 61.714C27.7017 61.714 26.6517 61.4116 25.7466 60.8812C23.9091 59.8149 22.6704 57.8196 22.6704 55.5357V6.17871C22.6704 3.89485 23.9091 1.89958 25.7466 0.833228C26.6517 0.302803 27.7017 0.000488281 28.82 0.000488281C32.2107 0.000488281 34.9669 2.77079 34.9669 6.17871Z" fill="#4953B8"/>
<path d="M34.9669 6.17871V55.5357C34.9669 58.9437 32.2106 61.714 28.82 61.714C27.7017 61.714 26.6517 61.4116 25.7466 60.8812C27.5813 59.8149 28.82 57.8168 28.82 55.5357V6.17871C28.82 3.8976 27.5813 1.89958 25.7466 0.833228C26.6517 0.302803 27.7017 0.000488281 28.82 0.000488281C32.2106 0.000488281 34.9669 2.77079 34.9669 6.17871Z" fill="#5965E0"/>
<path d="M125.33 6.17822V55.5353C125.33 58.9432 122.574 61.7135 119.183 61.7135C118.065 61.7135 117.015 61.4112 116.11 60.8807C114.272 59.8144 113.033 57.8191 113.033 55.5353V6.17822C113.033 3.89437 114.272 1.89909 116.11 0.832741C117.015 0.302316 118.065 0 119.183 0C122.574 0 125.33 2.77031 125.33 6.17822Z" fill="#5297E8"/>
<path d="M125.33 6.17822V55.5353C125.33 58.9432 122.574 61.7135 119.183 61.7135C118.065 61.7135 117.015 61.4112 116.11 60.8807C117.945 59.8144 119.183 57.8164 119.183 55.5353V6.17822C119.183 3.89712 117.945 1.89909 116.11 0.832741C117.015 0.302316 118.065 0 119.183 0C122.574 0 125.33 2.77031 125.33 6.17822Z" fill="#5965E0"/>
<path d="M52.3027 8.40356C49.3416 8.40356 46.9414 10.816 46.9414 13.7922V25.6696C46.9414 28.6457 49.3416 31.0582 52.3027 31.0582C55.2638 31.0582 57.664 28.6457 57.664 25.6696V13.7922C57.664 10.8163 55.2635 8.40356 52.3027 8.40356Z" fill="#FFD3C0"/>
<path d="M63.0249 8.40356C60.0638 8.40356 57.6636 10.816 57.6636 13.7922V25.6696C57.6636 28.6457 60.0638 31.0582 63.0249 31.0582C65.9859 31.0582 68.3862 28.6457 68.3862 25.6696V13.7922C68.3862 10.8163 65.9859 8.40356 63.0249 8.40356Z" fill="#FFB9A1"/>
<path d="M73.7475 8.40356C70.7865 8.40356 68.3862 10.816 68.3862 13.7922V25.6696C68.3862 28.6457 70.7865 31.0582 73.7475 31.0582C76.7086 31.0582 79.1088 28.6457 79.1088 25.6696V13.7922C79.1088 10.8163 76.7086 8.40356 73.7475 8.40356Z" fill="#FFD3C0"/>
<path d="M84.4707 8.40356C81.5096 8.40356 79.1094 10.816 79.1094 13.7922V25.6696C79.1094 28.6457 81.5096 31.0582 84.4707 31.0582C87.4317 31.0582 89.832 28.6457 89.832 25.6696V13.7922C89.8317 10.8163 87.4315 8.40356 84.4707 8.40356Z" fill="#FFB9A1"/>
<path d="M101.65 111.307C101.259 111.747 100.701 112 100.116 112H47.8842C47.299 112 46.7412 111.747 46.3502 111.307C45.9619 110.868 45.7787 110.282 45.8471 109.697L46.4185 104.854L48.5842 86.4654C48.7045 85.4293 49.5795 84.646 50.6213 84.646H97.3791C98.4209 84.646 99.2959 85.4293 99.4163 86.4654L102.153 109.697C102.222 110.282 102.039 110.868 101.65 111.307Z" fill="#EEF6FF"/>
<path d="M101.65 111.307C101.259 111.747 100.701 112 100.116 112H47.8842C47.299 112 46.7412 111.747 46.3502 111.307C45.9619 110.868 45.7787 110.282 45.8471 109.697L46.4185 104.854H91.9213C92.5065 104.854 93.0643 104.602 93.4526 104.162C93.8436 103.722 94.0241 103.137 93.9557 102.551L92.1483 86.4654C92.0252 85.4293 91.1502 84.646 90.1112 84.646H97.3791C98.4209 84.646 99.2959 85.4293 99.4163 86.4654L102.153 109.697C102.222 110.282 102.039 110.868 101.65 111.307Z" fill="#DAE6EF"/>
</g>
<defs>
<filter id="filter0_d" x="0" y="0" width="148" height="120" filterUnits="userSpaceOnUse" color-interpolation-filters="sRGB">
<feFlood flood-opacity="0" result="BackgroundImageFix"/>
<feColorMatrix in="SourceAlpha" type="matrix" values="0 0 0 0 0 0 0 0 0 0 0 0 0 0 0 0 0 0 127 0"/>
<feOffset dy="4"/>
<feGaussianBlur stdDeviation="2"/>
<feColorMatrix type="matrix" values="0 0 0 0 0 0 0 0 0 0 0 0 0 0 0 0 0 0 0.25 0"/>
<feBlend mode="normal" in2="BackgroundImageFix" result="effect1_dropShadow"/>
<feBlend mode="normal" in="SourceGraphic" in2="effect1_dropShadow" result="shape"/>
</filter>
</defs>
</svg>
